<svg viewBox="0 0 100 300" xmlns="http://www.w3.org/2000/svg"  width="100%" height="100%">
    <path   d=
        "   
            M 4 1
            Q 1 1 1 4
            L 1 296
            Q 1 299 4 299
            L 96 299
            Q 99 299 99 296
            L 99 4
            Q 99 1 96 1
            L 4 1

            M 0 30
            L 100 30

            M 0 60
            L 100 60

            M 0 90
            L 100 90

            M 0 120
            L 100 120
            M 67 120
            L 67 90
            
            M 0 150
            L 100 150

            M 0 180
            L 100 180

            M 33 180
            L 33 120

            M 67 180
            L 67 120

            M 0 210
            L 100 210

            M 0 240
            L 100 240

            M 0 270
            L 100 270

            M 33 180
            L 33 300

            M 67 180
            L 67 240
            

        " 
        fill="none"
        stroke="black"
        stroke-width="2"
    />

    <text x="50" y="5" font-size="4" text-anchor="middle" fill="black">Character Name</text>
    <text x="50" y="35" font-size="4" text-anchor="middle" fill="black">Races/Species</text>
    <text x="50" y="65" font-size="4" text-anchor="middle" fill="black">Classes/Levels</text>
    <text x="33" y="95" font-size="4" text-anchor="middle" fill="black">Player Name</text>
    <text x="83" y="95" font-size="4" text-anchor="middle" fill="black">AC</text>
    <text x="17" y="125" font-size="4" text-anchor="middle" fill="black">STR</text>
    <text x="50" y="125" font-size="4" text-anchor="middle" fill="black">DEX</text>
    <text x="83" y="125" font-size="4" text-anchor="middle" fill="black">CON</text>
    <text x="17" y="155" font-size="4" text-anchor="middle" fill="black">INT</text>
    <text x="50" y="155" font-size="4" text-anchor="middle" fill="black">WIS</text>
    <text x="83" y="155" font-size="4" text-anchor="middle" fill="black">CHA</text>

    <text x="17" y="185" font-size="4" text-anchor="middle" fill="black">HP MAX</text>
    <text x="17" y="215" font-size="4" text-anchor="middle" fill="black">HP LOS</text>
    <text x="17" y="245" font-size="4" text-anchor="middle" fill="black">HP TEMP</text>
    <text x="17" y="275" font-size="4" text-anchor="middle" fill="black">HP NOW</text>

    <text x="50" y="185" font-size="4" text-anchor="middle" fill="black">INI</text>
    <text x="83" y="185" font-size="4" text-anchor="middle" fill="black">SPE</text>

    <text x="50" y="215" font-size="4" text-anchor="middle" fill="black">PROF</text>
    <text x="83" y="215" font-size="4" text-anchor="middle" fill="black">DC</text>

    <text x="67" y="245" font-size="4" text-anchor="middle" fill="black">DST</text>
    <text x="67" y="275" font-size="4" text-anchor="middle" fill="black">Res/Vul</text>



  
</svg>